<svg width="16" height="16" viewBox="0 0 16 16" fill="none" xmlns="http://www.w3.org/2000/svg">
<rect width="16" height="16" fill="white" fill-opacity="0.01"/>
<path fill-rule="evenodd" clip-rule="evenodd" d="M8 1C4.13309 1 1 4.13537 1 7.99873C1 11.6711 3.83323 14.6855 7.43219 14.9747V15H8C11.8669 15 15 11.8646 15 8.00127C15 4.13819 11.8672 1 8 1ZM9.54677 13.6585C9.10761 13.7782 8.64791 13.8482 8.1741 13.8621H8C7.20991 13.8621 6.45614 13.7056 5.76802 13.4219C6.43427 11.0213 8.24037 9.30186 10.3076 8.53353C10.6644 10.2625 10.4054 12.1153 9.54677 13.6585ZM9.99286 7.44002C7.63344 8.28983 5.57283 10.2041 4.74486 12.8756C3.17198 11.8236 2.1356 10.0314 2.1356 7.99873C2.1356 7.27791 2.2658 6.58735 2.50398 5.9493C3.21394 6.30305 3.97308 6.55327 4.75377 6.69242C5.74825 6.87475 6.76717 6.86869 7.75876 6.68991C8.32318 6.588 8.8742 6.4257 9.40254 6.20942C9.63772 6.60037 9.83551 7.01233 9.99286 7.44002ZM11.4022 8.221C11.7431 9.79476 11.6397 11.4625 11.0956 12.9819C12.71 11.9766 13.7999 10.2086 13.8616 8.18312C13.0591 8.03762 12.2226 8.05538 11.4022 8.221ZM13.7827 7.02068C12.894 6.89586 11.98 6.93643 11.0873 7.12713C10.9115 6.63385 10.6895 6.15866 10.4251 5.70745C11.1586 5.28382 11.8284 4.75065 12.4042 4.12894C13.1084 4.92965 13.5979 5.92371 13.7827 7.02068ZM4.95441 5.57487C4.27621 5.45413 3.61747 5.23646 3.00274 4.92924C3.53144 4.07073 4.27526 3.35864 5.15915 2.86825L5.16596 2.87039L5.16621 2.87047L5.16625 2.87048L5.16626 2.87049C5.26255 2.90079 5.35448 2.92972 5.44301 2.96149C5.47566 2.97397 5.50765 2.98609 5.53891 2.99794L5.5394 2.99813L5.53942 2.99814L5.53944 2.99814C5.68298 3.05257 5.81116 3.10117 5.91824 3.15081L5.9488 3.16609L5.95608 3.16948C6.0237 3.20092 6.12113 3.24736 6.20894 3.28923C6.2556 3.3115 6.29956 3.33246 6.33489 3.34917L6.33621 3.34989C6.36574 3.36575 6.39054 3.37907 6.41366 3.39285C6.43248 3.40506 6.44928 3.41495 6.45829 3.42022C6.47476 3.42987 6.49169 3.4394 6.50565 3.44717C6.51757 3.4538 6.52927 3.46025 6.53805 3.46506L6.54246 3.46749L6.5518 3.47265L6.55299 3.47333C6.566 3.48084 6.5818 3.48985 6.5998 3.50013C6.63841 3.52216 6.68721 3.55 6.7408 3.58137C6.77858 3.60351 6.81393 3.62462 6.84276 3.64249C6.8642 3.65581 6.87585 3.66353 6.88028 3.66647L6.88054 3.66664C6.88235 3.66785 6.88278 3.66813 6.88205 3.66758L6.90695 3.68644L6.9346 3.70287C6.97677 3.72789 7.01833 3.75665 7.07019 3.79253L7.0702 3.79254L7.07022 3.79256L7.07044 3.79271C7.09411 3.80909 7.11994 3.82696 7.14895 3.84665L7.16866 3.86002L7.18541 3.86947C7.1854 3.8695 7.18618 3.87002 7.18785 3.87115C7.19235 3.87418 7.2033 3.88156 7.22236 3.89521C7.2517 3.91621 7.28711 3.94257 7.32609 3.97189L7.37225 4.00667C7.39598 4.02458 7.42005 4.04274 7.44052 4.05805C7.46756 4.07829 7.50063 4.10285 7.53049 4.12354C7.96623 4.4568 8.36453 4.83733 8.71912 5.25675C8.34186 5.3948 7.95301 5.50107 7.55709 5.57255C6.69404 5.72815 5.8125 5.73235 4.95738 5.57542L4.95589 5.57513L4.95441 5.57487ZM8 2.1354C9.34605 2.1354 10.5861 2.58939 11.5758 3.35233C11.0569 3.91372 10.4493 4.39182 9.78393 4.76598C9.3265 4.18457 8.79728 3.66112 8.20726 3.21166L8.193 3.20081L8.17821 3.19095L8.17419 3.18815C8.17104 3.18592 8.16684 3.18292 8.16145 3.17901C8.15056 3.17109 8.13706 3.1611 8.12088 3.14898C8.10252 3.13524 8.0841 3.12135 8.06431 3.10642L8.06427 3.10639L8.06022 3.10333C8.04418 3.09122 8.02721 3.0784 8.00861 3.06443C7.96841 3.0342 7.92431 3.00132 7.8838 2.97229C7.85549 2.952 7.8148 2.9233 7.77324 2.898L7.74688 2.87976L7.74673 2.87966L7.74672 2.87965C7.69267 2.84221 7.61158 2.78605 7.5378 2.74074C7.46887 2.69243 7.37573 2.63738 7.3147 2.60164C7.25561 2.56704 7.19198 2.53073 7.15247 2.50818L7.15216 2.508L7.12224 2.49089C7.11482 2.48656 7.10839 2.48298 7.10588 2.48158L7.10553 2.48138L7.09019 2.4729L7.08501 2.47004C7.07619 2.46519 7.06738 2.46034 7.05821 2.45523C7.04771 2.4494 7.03922 2.44458 7.03303 2.44097L7.02877 2.43799L7.0137 2.42878C6.95916 2.39546 6.90234 2.36503 6.87149 2.34851L6.87083 2.34815L6.86009 2.3424L6.8469 2.3353L6.83336 2.3289C6.80626 2.31611 6.76621 2.29703 6.72073 2.27535C7.1325 2.18373 7.5606 2.1354 8 2.1354Z" fill="#1C2024"/>
</svg>
