<svg width="16" height="16" viewBox="0 0 16 16" fill="none" xmlns="http://www.w3.org/2000/svg">
<rect width="16" height="16" fill="white" fill-opacity="0.01"/>
<path fill-rule="evenodd" clip-rule="evenodd" d="M7.46672 2.18654H5.89339C5.02446 2.18654 4.32005 2.89095 4.32005 3.75987C4.32005 4.6288 5.02446 5.33321 5.89339 5.33321H7.46672V2.18654ZM7.46672 1.11987H8.53339H10.1067C11.5648 1.11987 12.7467 2.30184 12.7467 3.75987C12.7467 4.62029 12.3351 5.38458 11.698 5.86654C12.3351 6.34851 12.7467 7.1128 12.7467 7.97322C12.7467 9.43124 11.5648 10.6132 10.1067 10.6132C9.51719 10.6132 8.97278 10.42 8.53339 10.0934V10.6132V12.1866C8.53339 13.6446 7.35141 14.8266 5.89339 14.8266C4.43535 14.8266 3.25339 13.6446 3.25339 12.1866C3.25339 11.3261 3.66499 10.5618 4.30205 10.0799C3.66499 9.5979 3.25339 8.83362 3.25339 7.97322C3.25339 7.1128 3.665 6.34851 4.30207 5.86655C3.665 5.38458 3.25339 4.62029 3.25339 3.75987C3.25339 2.30184 4.43535 1.11987 5.89339 1.11987H7.46672ZM8.53339 2.18654V5.33321H10.1067C10.9757 5.33321 11.68 4.6288 11.68 3.75987C11.68 2.89095 10.9757 2.18654 10.1067 2.18654H8.53339ZM5.89339 9.54653H7.46672V7.97727V7.97322V7.96916V6.39988H5.89339C5.02446 6.39988 4.32005 7.10429 4.32005 7.97322C4.32005 8.84007 5.02109 9.54318 5.88715 9.54654L5.89339 9.54653ZM4.32005 12.1866C4.32005 11.3197 5.02109 10.6166 5.88715 10.6132L5.89339 10.6132H7.46672V12.1866C7.46672 13.0555 6.76232 13.7599 5.89339 13.7599C5.02446 13.7599 4.32005 13.0555 4.32005 12.1866ZM8.53339 7.97008C8.53508 7.10259 9.23884 6.39988 10.1067 6.39988C10.9757 6.39988 11.68 7.10429 11.68 7.97322C11.68 8.84214 10.9757 9.54655 10.1067 9.54655C9.23884 9.54655 8.53508 8.84384 8.53339 7.97635V7.97008Z" fill="#1C2024"/>
</svg>
