<svg width="16" height="16" viewBox="0 0 16 16" fill="none" xmlns="http://www.w3.org/2000/svg">
<rect width="16" height="16" fill="white" fill-opacity="0.01"/>
<path fill-rule="evenodd" clip-rule="evenodd" d="M13.7697 13.7696C14.1189 13.4205 14.3913 13.0021 14.5694 12.5415C14.7408 12.1006 14.858 11.5966 14.8917 10.8585C14.9254 10.1191 14.9334 9.88296 14.9334 7.99999C14.9334 6.11703 14.9254 5.88082 14.8917 5.1414C14.858 4.40341 14.7408 3.89943 14.5694 3.45842C14.3953 2.99579 14.1225 2.5767 13.7697 2.23038C13.4234 1.87762 13.0043 1.60465 12.5417 1.43052C12.1006 1.25925 11.5966 1.14206 10.8586 1.10851C10.1192 1.07463 9.88306 1.06665 8.00006 1.06665C6.11708 1.06665 5.88088 1.07463 5.14148 1.10838C4.40348 1.14206 3.8995 1.25925 3.45848 1.43065C2.99586 1.60475 2.57678 1.87766 2.23045 2.23036C1.87767 2.57666 1.60469 2.99574 1.43054 3.45838C1.25926 3.89943 1.14208 4.40341 1.10852 5.1414C1.07464 5.88082 1.06667 6.11701 1.06667 7.99999C1.06667 9.88299 1.07464 10.1192 1.10852 10.8585C1.14222 11.5966 1.2594 12.1006 1.4308 12.5415C1.60491 13.0043 1.87781 13.4232 2.23052 13.7696C2.57683 14.1223 2.99591 14.3952 3.45854 14.5693C3.89958 14.7407 4.40356 14.8579 5.14154 14.8916C5.88104 14.9253 6.11715 14.9333 8.00013 14.9333C9.88309 14.9333 10.1193 14.9253 10.8587 14.8916C11.5967 14.8579 12.1007 14.7407 12.5417 14.5693C13.0022 14.3911 13.4206 14.1188 13.7697 13.7696ZM2.13279 7.18394C2.13306 7.40824 2.13339 7.67511 2.13339 8.00001C2.13339 8.3249 2.13306 8.59177 2.13279 8.81606C2.13172 9.69168 2.13145 9.91845 2.15427 10.4165C2.18267 11.0409 2.21678 11.4998 2.32094 11.8456C2.42108 12.1781 2.53339 12.5165 2.90005 12.9249C3.26672 13.3332 3.62038 13.5182 4.07088 13.6541C4.52138 13.7899 5.08757 13.8191 5.57922 13.8415C6.13687 13.867 6.35789 13.8669 7.52762 13.8665H8.00006C8.31258 13.8665 8.5714 13.8668 8.79029 13.8671C9.68741 13.868 9.91387 13.8683 10.4168 13.8452C11.0413 13.8168 11.5002 13.7827 11.846 13.6786C12.1785 13.5784 12.5168 13.4661 12.9251 13.0994C13.3334 12.7328 13.5184 12.3791 13.6543 11.9286C13.7902 11.4781 13.8194 10.9119 13.8418 10.4203C13.8672 9.86333 13.8671 9.64294 13.8669 8.47731L13.8668 8.0004V7.52795C13.8671 6.35822 13.8672 6.13721 13.8417 5.57956C13.8193 5.08791 13.7901 4.52171 13.6543 4.07122C13.5184 3.62073 13.3334 3.26706 12.9251 2.90039C12.5168 2.53372 12.1783 2.42141 11.846 2.32127C11.5001 2.21711 11.0412 2.183 10.4168 2.15461C9.91382 2.13157 9.6874 2.13181 8.79031 2.13279C8.57141 2.13304 8.31259 2.13333 8.00006 2.13333L7.52751 2.13324C6.35788 2.13293 6.13686 2.13287 5.57922 2.15831C5.08757 2.18074 4.52138 2.20994 4.07088 2.34581C3.62038 2.48168 3.26672 2.66664 2.90005 3.07498C2.53339 3.48331 2.42108 3.8217 2.32094 4.15415C2.21678 4.49997 2.18267 4.95885 2.15427 5.58331C2.13145 6.08138 2.13172 6.30826 2.13279 7.18394ZM7.99996 5.60014C6.67457 5.60014 5.60013 6.67459 5.60013 7.99997C5.60013 9.32536 6.67457 10.3998 7.99996 10.3998C9.32534 10.3998 10.3998 9.32536 10.3998 7.99997C10.3998 6.67459 9.32534 5.60014 7.99996 5.60014ZM4.53346 7.99997C4.53346 6.08548 6.08546 4.53348 7.99996 4.53348C9.91445 4.53348 11.4665 6.08548 11.4665 7.99997C11.4665 9.91447 9.91445 11.4664 7.99996 11.4664C6.08546 11.4664 4.53346 9.91447 4.53346 7.99997ZM11.701 5.09897C12.1428 5.09897 12.501 4.74081 12.501 4.29897C12.501 3.85715 12.1428 3.49897 11.701 3.49897C11.2592 3.49897 10.901 3.85715 10.901 4.29897C10.901 4.74081 11.2592 5.09897 11.701 5.09897Z" fill="#1C2024"/>
</svg>
