<svg width="16" height="16" viewBox="0 0 16 16" fill="none" xmlns="http://www.w3.org/2000/svg">
<rect width="16" height="16" fill="white" fill-opacity="0.01"/>
<path fill-rule="evenodd" clip-rule="evenodd" d="M8.92028 2.04311C9.58818 1.37522 10.494 1 11.4386 1C12.3831 1 13.289 1.37522 13.9569 2.04311C14.6248 2.71101 15 3.61687 15 4.56141C15 5.50596 14.6248 6.41182 13.9569 7.07971L12.8061 8.23049C12.5663 8.47029 12.1775 8.47029 11.9377 8.23049C11.6979 7.9907 11.6979 7.60191 11.9377 7.36212L13.0885 6.21134C13.5261 5.77375 13.7719 5.18025 13.7719 4.56141C13.7719 3.94257 13.5261 3.34908 13.0885 2.91149C12.6509 2.4739 12.0574 2.22807 11.4386 2.22807C10.8197 2.22807 10.2262 2.4739 9.78866 2.91149L6.84129 5.85885C6.57718 6.12278 6.38011 6.44638 6.26693 6.8022C6.15374 7.15801 6.1276 7.53579 6.1907 7.9038C6.25379 8.27181 6.40429 8.61931 6.62953 8.91709C6.85477 9.21488 7.14819 9.45427 7.48514 9.61514C7.79117 9.76125 7.92081 10.1278 7.7747 10.4338C7.62858 10.7398 7.26205 10.8695 6.95602 10.7234C6.44173 10.4778 5.99388 10.1125 5.65009 9.65793C5.30629 9.20341 5.0766 8.67303 4.98029 8.11133C4.88399 7.54963 4.92389 6.97302 5.09664 6.42993C5.26937 5.88692 5.56988 5.39328 5.97292 4.99047C5.97297 4.99042 5.97287 4.99053 5.97292 4.99047L8.92028 2.04311ZM8.22529 5.56618C8.3714 5.26015 8.73794 5.13051 9.04397 5.27663C9.55825 5.52217 10.0061 5.88755 10.3499 6.34207C10.6937 6.79659 10.9234 7.32697 11.0197 7.88867C11.116 8.45038 11.0761 9.02698 10.9033 9.57007C10.7306 10.1131 10.4301 10.6067 10.0271 11.0095C10.027 11.0096 10.0271 11.0095 10.0271 11.0095L7.0797 13.9569C6.41181 14.6248 5.50595 15 4.56141 15C3.61686 15 2.711 14.6248 2.04311 13.9569C1.37521 13.289 0.999992 12.3831 0.999992 11.4386C0.999992 10.494 1.37521 9.58818 2.04311 8.92029L3.19389 7.76951C3.43368 7.52971 3.82247 7.52971 4.06226 7.76951C4.30206 8.0093 4.30206 8.39809 4.06226 8.63788L2.91148 9.78866C2.47389 10.2263 2.22806 10.8197 2.22806 11.4386C2.22806 12.0574 2.47389 12.6509 2.91148 13.0885C3.34907 13.5261 3.94256 13.7719 4.56141 13.7719C5.18025 13.7719 5.77374 13.5261 6.21133 13.0885L9.15869 10.1412C9.4228 9.87723 9.61988 9.55362 9.73306 9.1978C9.84624 8.84199 9.87238 8.46421 9.80929 8.0962C9.74619 7.72819 9.5957 7.3807 9.37046 7.08291C9.14521 6.78512 8.85179 6.54573 8.51485 6.38486C8.20882 6.23875 8.07918 5.87221 8.22529 5.56618Z" fill="black"/>
</svg>
