<svg width="16" height="16" viewBox="0 0 16 16" fill="none" xmlns="http://www.w3.org/2000/svg">
<rect width="16" height="16" fill="white" fill-opacity="0.01"/>
<path d="M3.475 3.32468C3.92289 3.68854 4.09091 3.66077 4.93194 3.60467L12.8609 3.12857C13.029 3.12857 12.8892 2.96081 12.8332 2.93292L11.5163 1.98097C11.264 1.78508 10.9278 1.56074 10.2836 1.61686L2.60595 2.17684C2.32596 2.2046 2.27003 2.34459 2.38155 2.45682L3.475 3.32468ZM3.95104 5.1725V13.5151C3.95104 13.9635 4.17509 14.1312 4.67939 14.1035L13.3933 13.5993C13.8978 13.5716 13.954 13.2631 13.954 12.8989V4.61228C13.954 4.24865 13.8142 4.05254 13.5053 4.08053L4.39917 4.61228C4.06313 4.64052 3.95104 4.80861 3.95104 5.1725ZM12.5534 5.62002C12.6093 5.87224 12.5534 6.12423 12.3007 6.15257L11.8809 6.23622V12.3952C11.5163 12.5912 11.1802 12.7032 10.9001 12.7032C10.4516 12.7032 10.3393 12.5631 10.0033 12.1434L7.25701 7.83204V12.0035L8.12604 12.1995C8.12604 12.1995 8.12604 12.7032 7.42492 12.7032L5.49204 12.8153C5.43589 12.7032 5.49204 12.4235 5.6881 12.3674L6.19249 12.2277V6.71233L5.49216 6.65621C5.436 6.40398 5.57588 6.04035 5.96843 6.01211L8.04197 5.87235L10.9001 10.2398V6.37621L10.1713 6.29257C10.1154 5.98424 10.3393 5.76035 10.6195 5.73258L12.5534 5.62002ZM1.96132 1.42098L9.94728 0.832888C10.928 0.748776 11.1803 0.805119 11.7967 1.25287L14.3458 3.04457C14.7665 3.35268 14.9067 3.43656 14.9067 3.77243V13.5993C14.9067 14.2151 14.6823 14.5794 13.8979 14.635L4.62392 15.1951C4.0351 15.2232 3.75487 15.1392 3.44652 14.747L1.56924 12.3114C1.23285 11.8631 1.09297 11.5276 1.09297 11.1352V2.40049C1.09297 1.89685 1.31738 1.47675 1.96132 1.42098Z" fill="#1C2024"/>
</svg>
