<svg width="16" height="16" viewBox="0 0 16 16" fill="none" xmlns="http://www.w3.org/2000/svg">
<rect width="16" height="16" fill="white" fill-opacity="0.01"/>
<path d="M2.375 3C2.375 2.65482 2.65482 2.375 3 2.375H3.5C9.09184 2.375 13.625 6.90816 13.625 12.5V13C13.625 13.3452 13.3452 13.625 13 13.625C12.6548 13.625 12.375 13.3452 12.375 13V12.5C12.375 7.59851 8.40149 3.625 3.5 3.625H3C2.65482 3.625 2.375 3.34518 2.375 3Z" fill="black"/>
<path d="M2.375 7.5C2.375 7.15482 2.65482 6.875 3 6.875H3.5C4.99184 6.875 6.42258 7.46763 7.47748 8.52252C8.53237 9.57742 9.125 11.0082 9.125 12.5V13C9.125 13.3452 8.84518 13.625 8.5 13.625C8.15482 13.625 7.875 13.3452 7.875 13V12.5C7.875 11.3397 7.41406 10.2269 6.59359 9.40641C5.77312 8.58594 4.66032 8.125 3.5 8.125H3C2.65482 8.125 2.375 7.84518 2.375 7.5Z" fill="black"/>
<path d="M2.7045 11.7045C2.91548 11.4935 3.20163 11.375 3.5 11.375C3.79837 11.375 4.08452 11.4935 4.2955 11.7045C4.50647 11.9155 4.625 12.2016 4.625 12.5C4.625 12.7984 4.50647 13.0845 4.2955 13.2955C4.08452 13.5065 3.79837 13.625 3.5 13.625C3.20163 13.625 2.91548 13.5065 2.7045 13.2955C2.49353 13.0845 2.375 12.7984 2.375 12.5C2.375 12.2016 2.49353 11.9155 2.7045 11.7045Z" fill="black"/>
</svg>
