<svg width="16" height="16" viewBox="0 0 16 16" fill="none" xmlns="http://www.w3.org/2000/svg">
<rect width="16" height="16" fill="white" fill-opacity="0.01"/>
<path d="M11.2447 7.88391C13.0289 8.63506 13.9067 10.4331 13.3245 12.2939C12.9278 13.5639 11.7976 14.5899 10.5865 15.0537C9.05951 15.6402 7.00891 15.6025 5.50287 14.9776C2.44825 13.7118 1.73568 10.1966 2.03898 7.27225C2.25024 5.22524 3.10227 3.22985 4.98343 2.20391C6.40092 1.42765 8.21515 1.31745 9.76721 1.64246C11.3785 1.98003 12.6866 2.93343 13.4793 4.37715C13.724 4.82003 13.9221 5.30963 14.0699 5.85433C14.0741 5.87526 14.0657 5.89689 14.0448 5.90107L12.9229 6.19679C12.902 6.20097 12.8804 6.18841 12.8762 6.17167C12.7075 5.53002 12.4418 4.96021 12.0744 4.46293C10.9267 2.90135 8.82174 2.48358 7.00752 2.80859C4.86838 3.19288 3.68725 4.69519 3.34142 6.75824C3.05904 8.4335 3.14759 10.3745 3.91944 11.9193C4.56926 13.2194 5.74621 13.9489 7.1637 14.1519C7.92718 14.2572 8.67393 14.2446 9.40395 14.1093C10.4505 13.9154 11.5724 13.2229 12.0277 12.2311C12.3233 11.5894 12.3526 10.7755 12.0277 10.1381C11.8422 9.77539 11.5633 9.48386 11.1965 9.26486C11.1798 9.2523 11.154 9.26067 11.1457 9.27741C11.1415 9.28159 11.1415 9.28577 11.1415 9.28996C11.0989 9.60241 11.0278 9.91 10.9218 10.2099C10.7698 10.636 10.5509 11.0036 10.2595 11.3028C9.28054 12.3113 7.57648 12.3999 6.42464 11.6738C5.50497 11.0915 5.15914 9.90161 5.5977 8.9224C6.053 7.90971 7.16719 7.47103 8.2256 7.42011C8.82453 7.39082 9.37745 7.41593 9.88783 7.48776C9.90874 7.49195 9.92547 7.47521 9.93035 7.45429V7.44172C9.88363 7.20947 9.82926 7.01977 9.76162 6.87191C9.40742 6.09147 8.60978 5.88433 7.81284 5.98546C7.30246 6.04893 6.90153 6.28955 6.60172 6.70314C6.58917 6.71988 6.56825 6.72405 6.55082 6.7115L5.5977 6.06147C5.58097 6.04892 5.57679 6.02801 5.58934 6.00639C6.09972 5.28872 6.79137 4.87094 7.6692 4.75725C8.39503 4.66031 9.20872 4.77399 9.84182 5.15828C10.7908 5.74065 11.1282 6.78752 11.2126 7.84624C11.221 7.86717 11.2293 7.87972 11.2419 7.88391H11.2447ZM6.69237 9.53825C6.50272 10.1757 6.94129 10.6779 7.53603 10.8292C8.37133 11.0406 9.29936 10.8543 9.69609 9.99787C9.85227 9.66031 9.945 9.26346 9.97428 8.81221C9.97428 8.79129 9.96174 8.77455 9.94501 8.77455C9.32516 8.6525 8.68787 8.62669 8.03804 8.69016C7.51093 8.74526 6.85691 8.98587 6.69237 9.53825Z" fill="#1C2024"/>
</svg>
