<svg width="16" height="16" viewBox="0 0 16 16" fill="none" xmlns="http://www.w3.org/2000/svg">
<rect width="16" height="16" fill="white" fill-opacity="0.01"/>
<path d="M15.6675 3.76145C15.4843 3.06747 14.9422 2.52289 14.253 2.33735C13.0048 2 8.00241 2 8.00241 2C8.00241 2 2.99759 2 1.7518 2.33735C1.06265 2.52289 0.520478 3.06747 0.337346 3.76145C-3.8147e-06 5.01687 -3.8147e-06 7.63855 -3.8147e-06 7.63855C-3.8147e-06 7.63855 -3.95258e-06 10.2602 0.334936 11.5157C0.518068 12.2096 1.06024 12.7542 1.74939 12.9398C2.99759 13.2771 8 13.2771 8 13.2771C8 13.2771 13.0048 13.2771 14.2506 12.9398C14.9398 12.7542 15.4819 12.2096 15.6651 11.5157C16 10.2602 16 7.63855 16 7.63855C16 7.63855 16 5.01687 15.6675 3.76145ZM6.36385 10.0169V5.26024L10.5446 7.63855L6.36385 10.0169Z" fill="#1C2024"/>
</svg>
