<svg width="128" height="128" viewBox="0 0 128 128" fill="none" xmlns="http://www.w3.org/2000/svg">
<rect width="128" height="128" fill="white"/>
<path d="M86.2435 106.6C84.2168 106.6 82.6168 106.187 81.4435 105.36C80.2702 104.56 79.6835 103.587 79.6835 102.44C79.6835 101.96 79.7502 101.52 79.8835 101.12C80.0168 100.747 80.2968 100.307 80.7235 99.7998C81.1768 99.2932 81.8568 98.6398 82.7635 97.8398C83.0835 97.5465 83.2435 97.2798 83.2435 97.0398C83.2435 96.7732 83.0835 96.5732 82.7635 96.4398C81.8035 96.0398 81.2302 95.5332 81.0435 94.9198C80.8568 94.2798 81.0835 93.6932 81.7235 93.1598L84.6035 90.6798C84.9235 90.4132 84.9102 90.1865 84.5635 89.9998C83.4702 89.4665 82.6035 88.6398 81.9635 87.5198C81.3235 86.3998 81.0035 85.1998 81.0035 83.9198C81.0035 82.6932 81.2702 81.5865 81.8035 80.5998C82.3368 79.6132 83.0568 78.8265 83.9635 78.2398C84.8702 77.6532 85.8835 77.3598 87.0035 77.3598C87.6435 77.3598 88.2568 77.4665 88.8435 77.6798C89.2168 77.8132 89.4435 77.6932 89.5235 77.3198C89.7635 76.3065 90.2035 75.5198 90.8435 74.9598C91.5102 74.3732 92.1635 74.0798 92.8035 74.0798C93.4168 74.0798 93.9102 74.2665 94.2835 74.6398C94.6835 74.9865 94.8835 75.4265 94.8835 75.9598C94.8835 76.4132 94.7502 76.7732 94.4835 77.0398C94.2168 77.3065 93.8835 77.4398 93.4835 77.4398C93.1368 77.4398 92.8835 77.3732 92.7235 77.2398C92.5635 77.1065 92.4168 76.9732 92.2835 76.8398C92.1502 76.7065 91.9368 76.6398 91.6435 76.6398C91.0035 76.6398 90.6035 76.9865 90.4435 77.6798C90.3635 77.9465 90.3635 78.1732 90.4435 78.3598C90.5502 78.5465 90.6968 78.7332 90.8835 78.9198C91.5235 79.5332 92.0168 80.2798 92.3635 81.1598C92.7368 82.0398 92.9235 83.0132 92.9235 84.0798C92.9235 85.3598 92.6568 86.5065 92.1235 87.5198C91.6168 88.5332 90.9102 89.3332 90.0035 89.9198C89.1235 90.5065 88.1235 90.7998 87.0035 90.7998C86.5235 90.7998 86.1102 90.9065 85.7635 91.1198C85.4168 91.3065 85.0702 91.5865 84.7235 91.9598L84.0435 92.7198C83.6968 93.1465 83.5902 93.5598 83.7235 93.9598C83.8835 94.3332 84.2568 94.5198 84.8435 94.5198H88.2835C90.2035 94.5198 91.7235 94.9998 92.8435 95.9598C93.9635 96.8932 94.5235 98.1865 94.5235 99.8398C94.5235 101.146 94.1502 102.307 93.4035 103.32C92.6568 104.333 91.6568 105.133 90.4035 105.72C89.1768 106.307 87.7902 106.6 86.2435 106.6ZM86.9635 89.7998C87.9235 89.7998 88.6835 89.2798 89.2435 88.2398C89.8035 87.1998 90.0835 85.7865 90.0835 83.9998C90.0835 82.2665 89.7902 80.8798 89.2035 79.8398C88.6435 78.7732 87.8968 78.2398 86.9635 78.2398C86.0302 78.2398 85.2702 78.7732 84.6835 79.8398C84.1235 80.8798 83.8435 82.2665 83.8435 83.9998C83.8435 85.7865 84.1235 87.1998 84.6835 88.2398C85.2435 89.2798 86.0035 89.7998 86.9635 89.7998ZM86.7235 105.72C87.6835 105.72 88.5635 105.507 89.3635 105.08C90.1635 104.653 90.7902 104.053 91.2435 103.28C91.7235 102.533 91.9635 101.68 91.9635 100.72C91.9635 99.5198 91.6035 98.5998 90.8835 97.9598C90.1902 97.2932 89.2035 96.9598 87.9235 96.9598H87.0035C86.1768 96.9598 85.5502 97.0398 85.1235 97.1998C84.7235 97.3598 84.3368 97.6398 83.9635 98.0398C83.1368 98.9198 82.6168 99.6265 82.4035 100.16C82.1902 100.693 82.0835 101.24 82.0835 101.8C82.0835 102.973 82.4835 103.92 83.2835 104.64C84.1102 105.36 85.2568 105.72 86.7235 105.72Z" fill="#1C2024"/>
<path d="M70.5414 98.3599C69.1814 98.3599 67.9547 97.9065 66.8614 96.9999C65.7947 96.0665 64.9414 94.7999 64.3014 93.1999C63.6614 91.5999 63.3414 89.8132 63.3414 87.8399C63.3414 85.8665 63.6614 84.0932 64.3014 82.5199C64.9414 80.9465 65.808 79.6932 66.9014 78.7599C67.9947 77.8265 69.208 77.3599 70.5414 77.3599C71.9014 77.3599 73.1147 77.8265 74.1814 78.7599C75.2747 79.6932 76.1414 80.9465 76.7814 82.5199C77.4214 84.0932 77.7414 85.8665 77.7414 87.8399C77.7414 89.8132 77.4214 91.5999 76.7814 93.1999C76.168 94.7999 75.3147 96.0665 74.2214 96.9999C73.128 97.9065 71.9014 98.3599 70.5414 98.3599ZM70.5414 97.3599C73.3147 97.3599 74.7014 94.1865 74.7014 87.8399C74.7014 81.5199 73.3147 78.3599 70.5414 78.3599C67.768 78.3599 66.3814 81.5199 66.3814 87.8399C66.3814 94.1865 67.768 97.3599 70.5414 97.3599Z" fill="#1C2024"/>
<path d="M54.0583 97.9999C53.7383 97.9999 53.5783 97.8532 53.5783 97.5599C53.5783 97.2932 53.725 97.1332 54.0183 97.0799L54.5783 96.9999C55.1383 96.9199 55.5516 96.7599 55.8183 96.5199C56.085 96.2799 56.2183 95.8799 56.2183 95.3199V72.3999C56.2183 71.9199 56.1383 71.5866 55.9783 71.3999C55.845 71.2132 55.5916 71.1066 55.2183 71.0799L54.2983 70.9599C54.005 70.9066 53.8583 70.7466 53.8583 70.4799C53.8583 70.2132 54.005 70.0532 54.2983 69.9999C55.045 69.8399 55.685 69.6532 56.2183 69.4399C56.7516 69.2266 57.1916 69.0132 57.5383 68.7999C57.965 68.5332 58.285 68.3999 58.4983 68.3999C58.7916 68.3999 58.9383 68.6132 58.9383 69.0399V95.3199C58.9383 95.8799 59.0183 96.2799 59.1783 96.5199C59.365 96.7332 59.7383 96.8799 60.2983 96.9599L61.2183 97.0799C61.5116 97.1332 61.6583 97.2932 61.6583 97.5599C61.6583 97.8532 61.4983 97.9999 61.1783 97.9999H54.0583Z" fill="#1C2024"/>
<path d="M35.1427 98C34.7427 98 34.5427 97.8533 34.5427 97.56C34.5427 97.32 34.7161 97.16 35.0627 97.08L35.9827 96.92C36.5427 96.8133 36.9027 96.6666 37.0627 96.48C37.2494 96.2933 37.3427 95.92 37.3427 95.36V71.84C37.3427 71.28 37.2494 70.9066 37.0627 70.72C36.9027 70.5333 36.5427 70.3866 35.9827 70.28L35.0627 70.12C34.7161 70.04 34.5427 69.88 34.5427 69.64C34.5427 69.3466 34.7427 69.2 35.1427 69.2H43.2627C44.5961 69.2 45.7827 69.48 46.8227 70.04C47.8627 70.6 48.6761 71.36 49.2627 72.32C49.8761 73.28 50.1827 74.3733 50.1827 75.6C50.1827 76.8 49.8227 77.92 49.1027 78.96C48.4094 79.9733 47.3961 80.8266 46.0627 81.52C45.9027 81.6 45.8227 81.7066 45.8227 81.84C45.8227 81.9733 45.9161 82.0666 46.1027 82.12C47.9161 82.7333 49.3161 83.72 50.3027 85.08C51.2894 86.4133 51.7827 88 51.7827 89.84C51.7827 91.4133 51.4227 92.8266 50.7027 94.08C49.9827 95.3066 48.9827 96.2666 47.7027 96.96C46.4494 97.6533 45.0227 98 43.4227 98H35.1427ZM42.3027 81.56C43.7161 81.56 44.8894 81.0133 45.8227 79.92C46.7827 78.8 47.2627 77.4133 47.2627 75.76C47.2627 74.1066 46.8094 72.7733 45.9027 71.76C44.9961 70.72 43.7961 70.2 42.3027 70.2C40.8894 70.2 40.1827 70.7333 40.1827 71.8V79.36C40.1827 80.1333 40.3427 80.6933 40.6627 81.04C41.0094 81.3866 41.5561 81.56 42.3027 81.56ZM42.9027 97C44.6361 97 46.0494 96.3466 47.1427 95.04C48.2361 93.7066 48.7827 91.9333 48.7827 89.72C48.7827 87.5066 48.2227 85.76 47.1027 84.48C46.0094 83.2 44.5294 82.56 42.6627 82.56C41.0094 82.56 40.1827 83.2133 40.1827 84.52V94.24C40.1827 96.08 41.0894 97 42.9027 97Z" fill="#1C2024"/>
<path d="M91.4046 58.3599C90.1246 58.3599 88.9779 57.9332 87.9646 57.0799C86.9512 56.2265 86.1379 55.0265 85.5246 53.4799C84.9379 51.9065 84.6446 50.0932 84.6446 48.0399C84.6446 45.9332 84.9512 44.0799 85.5646 42.4799C86.1779 40.8799 87.0179 39.6265 88.0846 38.7199C89.1512 37.8132 90.3379 37.3599 91.6446 37.3599C93.2179 37.3599 94.4846 38.0132 95.4446 39.3199C96.4312 40.5999 96.9246 42.6932 96.9246 45.5999C96.9246 46.4799 96.5912 46.9199 95.9246 46.9199H88.3246C87.7912 46.9199 87.5246 47.2265 87.5246 47.8399C87.5246 50.6665 87.9379 52.7865 88.7646 54.1999C89.5912 55.6132 90.6446 56.3199 91.9246 56.3199C92.9379 56.3199 93.7646 55.9599 94.4046 55.2399C95.0446 54.5199 95.5646 53.3065 95.9646 51.5999C96.0446 51.3065 96.2179 51.1599 96.4846 51.1599C96.8046 51.1599 96.9246 51.4265 96.8446 51.9599C96.4179 54.3332 95.7379 55.9999 94.8046 56.9599C93.8712 57.8932 92.7379 58.3599 91.4046 58.3599ZM88.2046 45.9199H92.2446C93.5246 45.9199 94.1646 45.2532 94.1646 43.9199C94.1646 42.1865 93.9512 40.8265 93.5246 39.8399C93.0979 38.8532 92.4579 38.3599 91.6046 38.3599C90.5646 38.3599 89.6846 38.9599 88.9646 40.1599C88.2712 41.3599 87.8179 43.0665 87.6046 45.2799C87.5512 45.7065 87.7512 45.9199 88.2046 45.9199Z" fill="#1C2024"/>
<path d="M78.879 58.36C77.9457 58.36 77.1723 58.04 76.559 57.4C75.9723 56.7333 75.679 55.6533 75.679 54.16V39.2C75.679 38.88 75.519 38.72 75.199 38.72H74.039C73.6123 38.72 73.399 38.56 73.399 38.24C73.399 38.0266 73.519 37.84 73.759 37.68C74.639 37.0666 75.3457 36.4133 75.879 35.72C76.4123 35 76.879 34.0266 77.279 32.8C77.4657 32.24 77.6923 31.96 77.959 31.96C78.2523 31.96 78.399 32.1733 78.399 32.6V37.04C78.399 37.4133 78.5857 37.6 78.959 37.6H81.559C81.9857 37.6 82.199 37.7866 82.199 38.16C82.199 38.5333 81.9857 38.72 81.559 38.72H78.959C78.5857 38.72 78.399 38.9066 78.399 39.28V54.2C78.399 54.7866 78.4923 55.2533 78.679 55.6C78.8657 55.92 79.2123 56.08 79.719 56.08C80.279 56.08 80.7323 55.8 81.079 55.24C81.4523 54.68 81.6923 53.7733 81.799 52.52C81.8523 52.1466 82.0257 51.96 82.319 51.96C82.639 51.96 82.799 52.16 82.799 52.56C82.719 54.6133 82.2923 56.0933 81.519 57C80.7723 57.9066 79.8923 58.36 78.879 58.36Z" fill="#1C2024"/>
<path d="M61.6828 58.3599C60.5628 58.3599 59.6428 58.0132 58.9228 57.3199C58.2028 56.5999 57.8428 55.6532 57.8428 54.4799C57.8428 53.3332 58.2028 52.2532 58.9228 51.2399C59.6428 50.1999 60.6295 49.2665 61.8828 48.4399C63.1361 47.6132 64.5628 46.9465 66.1628 46.4399C66.5095 46.3332 66.6828 46.1065 66.6828 45.7599V42.1199C66.6828 40.8399 66.4828 39.9332 66.0828 39.3999C65.6828 38.8399 65.1361 38.5599 64.4428 38.5599C63.7761 38.5599 63.1628 38.8665 62.6028 39.4799C62.0695 40.0665 61.6828 41.0665 61.4428 42.4799C61.3095 43.3332 61.0161 43.9599 60.5628 44.3599C60.1361 44.7332 59.6961 44.9199 59.2428 44.9199C58.4961 44.9199 58.1228 44.5465 58.1228 43.7999C58.1228 43.0265 58.3361 42.2665 58.7628 41.5199C59.2161 40.7465 59.8028 40.0532 60.5228 39.4399C61.2428 38.7999 62.0295 38.2932 62.8828 37.9199C63.7361 37.5465 64.5895 37.3599 65.4428 37.3599C68.0828 37.3599 69.4028 38.8932 69.4028 41.9599V54.1999C69.4028 55.3199 69.6828 55.8799 70.2428 55.8799C70.5895 55.8799 70.9095 55.6532 71.2028 55.1999C71.4961 54.7199 71.6428 53.9199 71.6428 52.7999C71.6428 52.3732 71.8161 52.1599 72.1628 52.1599C72.4828 52.1599 72.6428 52.3865 72.6428 52.8399C72.6428 54.7865 72.2961 56.1999 71.6028 57.0799C70.9361 57.9332 70.1761 58.3599 69.3228 58.3599C68.6828 58.3599 68.1761 58.1065 67.8028 57.5999C67.4295 57.0665 67.1761 56.4399 67.0428 55.7199C67.0161 55.4532 66.8961 55.3199 66.6828 55.3199C66.4961 55.2932 66.3095 55.4132 66.1228 55.6799C65.4828 56.5599 64.8295 57.2265 64.1628 57.6799C63.4961 58.1332 62.6695 58.3599 61.6828 58.3599ZM62.7628 56.5199C63.4561 56.5199 64.0961 56.2799 64.6828 55.7999C65.2695 55.2932 65.7495 54.6265 66.1228 53.7999C66.4961 52.9732 66.6828 52.0399 66.6828 50.9999V48.0799C66.6828 47.5732 66.4028 47.4265 65.8428 47.6399C64.2161 48.2265 62.9495 49.0399 62.0428 50.0799C61.1628 51.0932 60.7228 52.3199 60.7228 53.7599C60.7228 55.5999 61.4028 56.5199 62.7628 56.5199Z" fill="#1C2024"/>
<path d="M48.5197 57.9999C48.1997 57.9999 48.0397 57.8532 48.0397 57.5599C48.0397 57.2932 48.1864 57.1332 48.4797 57.0799L49.0397 56.9999C49.5997 56.9199 50.0131 56.7599 50.2797 56.5199C50.5464 56.2799 50.6797 55.8799 50.6797 55.3199V32.3999C50.6797 31.9199 50.5997 31.5866 50.4397 31.3999C50.3064 31.2132 50.0531 31.1066 49.6798 31.0799L48.7598 30.9599C48.4664 30.9066 48.3197 30.7466 48.3197 30.4799C48.3197 30.2132 48.4664 30.0532 48.7598 29.9999C49.5064 29.8399 50.1464 29.6532 50.6797 29.4399C51.2131 29.2266 51.6531 29.0132 51.9998 28.7999C52.4264 28.5332 52.7464 28.3999 52.9597 28.3999C53.2531 28.3999 53.3997 28.6132 53.3997 29.0399V55.3199C53.3997 55.8799 53.4797 56.2799 53.6397 56.5199C53.8264 56.7332 54.1998 56.8799 54.7598 56.9599L55.6798 57.0799C55.9731 57.1332 56.1197 57.2932 56.1197 57.5599C56.1197 57.8532 55.9597 57.9999 55.6397 57.9999H48.5197Z" fill="#1C2024"/>
<path d="M38.4167 58.3598C37.8834 58.3598 37.2834 58.3065 36.6167 58.1998C35.9767 58.0931 35.3634 57.9598 34.7767 57.7998C34.2167 57.6398 33.7767 57.4665 33.4567 57.2798C33.27 57.1731 33.1234 57.0665 33.0167 56.9598C32.9367 56.8265 32.8967 56.6131 32.8967 56.3198L32.6967 50.0398C32.6967 49.5065 32.87 49.2398 33.2167 49.2398C33.51 49.2398 33.71 49.4798 33.8167 49.9598L34.1767 51.4798C35.0834 55.2931 36.7767 57.1998 39.2567 57.1998C40.59 57.1998 41.6434 56.7598 42.4167 55.8798C43.2167 54.9731 43.6167 53.7065 43.6167 52.0798C43.6167 50.5065 43.2034 49.0398 42.3767 47.6798C41.5767 46.3198 40.2834 44.9731 38.4967 43.6398C36.5234 42.2265 35.0834 40.8665 34.1767 39.5598C33.27 38.2265 32.8167 36.8131 32.8167 35.3198C32.8167 33.3465 33.4967 31.7731 34.8567 30.5998C36.2434 29.3998 38.0034 28.7998 40.1367 28.7998C40.9367 28.7998 41.71 28.8931 42.4567 29.0798C43.2034 29.2665 43.8167 29.5331 44.2967 29.8798C44.4567 29.9865 44.5767 30.1065 44.6567 30.2398C44.7634 30.3731 44.8167 30.5465 44.8167 30.7598L44.9367 36.7998C44.9367 37.2531 44.7634 37.4798 44.4167 37.4798C44.1767 37.4798 44.0034 37.2931 43.8967 36.9198L43.6167 35.9198C43.03 33.8665 42.4167 32.3731 41.7767 31.4398C41.1634 30.4798 40.27 29.9998 39.0967 29.9998C37.95 29.9998 37.03 30.3731 36.3367 31.1198C35.67 31.8665 35.3367 32.9198 35.3367 34.2798C35.3367 35.4265 35.71 36.5198 36.4567 37.5598C37.2034 38.5998 38.51 39.8665 40.3767 41.3598C42.3767 42.9865 43.83 44.5598 44.7367 46.0798C45.67 47.5731 46.1367 49.1731 46.1367 50.8798C46.1367 52.3731 45.8034 53.6798 45.1367 54.7998C44.47 55.9198 43.55 56.7998 42.3767 57.4398C41.23 58.0531 39.91 58.3598 38.4167 58.3598Z" fill="#1C2024"/>
</svg>
